<svg version="1.0" xmlns="http://www.w3.org/2000/svg"
 width="220.000000pt" height="220.000000pt" viewBox="0 0 220.000000 220.000000"
 preserveAspectRatio="xMidYMid meet">

<g transform="translate(0.000000,220.000000) scale(0.100000,-0.100000)"
fill="#875CEA" stroke="none">
<path d="M995 2159 c-49 -22 -99 -48 -109 -57 -11 -9 -16 -11 -12 -5 5 9 2 11
-8 7 -9 -3 -13 -11 -9 -17 3 -6 1 -7 -5 -3 -6 4 -31 -2 -54 -12 -53 -24 -219
-95 -353 -152 -198 -83 -238 -109 -278 -185 -22 -40 -22 -46 -25 -681 l-3
-640 68 -31 c37 -17 151 -67 253 -111 102 -44 286 -123 409 -176 153 -66 232
-95 247 -92 13 4 107 44 211 90 103 45 280 123 393 171 113 49 222 101 243
118 20 16 50 50 65 75 l27 47 3 641 3 641 -63 28 c-79 35 -431 188 -518 225
-76 32 -212 92 -289 127 -83 37 -97 37 -196 -8z m189 -435 c365 -208 503 -289
519 -302 16 -14 17 -44 17 -357 0 -313 -1 -343 -17 -357 -16 -13 -153 -93
-323 -188 -36 -20 -109 -62 -164 -94 -57 -33 -108 -56 -120 -54 -12 2 -155 79
-319 173 l-297 170 0 350 0 351 91 52 c50 29 101 52 113 52 12 0 89 -40 171
-88 83 -49 204 -120 270 -158 160 -92 165 -98 165 -192 0 -74 0 -75 -39 -111
-21 -20 -61 -49 -90 -64 l-51 -28 0 90 0 89 -42 25 c-24 13 -131 74 -238 135
-107 62 -198 112 -202 112 -12 0 -10 -422 2 -456 11 -32 26 -42 236 -163 161
-92 220 -111 286 -92 44 13 407 217 420 236 4 5 8 93 8 195 0 158 -3 191 -19
225 -10 22 -27 47 -37 56 -10 9 -144 88 -296 175 -152 88 -278 164 -279 169
-1 8 134 93 150 95 2 0 40 -21 85 -46z"/>
</g>
</svg>