<svg version="1.0" xmlns="http://www.w3.org/2000/svg"
 width="800.000000pt" height="800.000000pt" viewBox="0 0 800.000000 800.000000"
 preserveAspectRatio="xMidYMid meet">

<g transform="translate(0.000000,800.000000) scale(0.100000,-0.100000)"
fill="#343434" stroke="none">
<path d="M2466 6348 c-3 -13 -17 -194 -31 -403 -24 -362 -31 -596 -20 -607 3
-3 42 33 88 79 130 133 303 267 450 349 119 65 288 144 310 144 17 0 65 36 57
43 -13 12 -828 417 -839 417 -5 0 -11 -10 -15 -22z"/>
<path d="M3720 5987 c-3 -3 -55 -12 -116 -20 -111 -15 -164 -32 -148 -47 5 -5
54 -32 109 -61 55 -28 106 -58 114 -65 24 -22 5 -42 -50 -49 -66 -9 -121 -28
-119 -40 1 -6 24 -15 50 -21 46 -10 54 -9 107 18 32 16 63 39 68 51 11 24 42
32 82 22 21 -5 23 -8 12 -21 -18 -21 6 -42 118 -99 51 -26 99 -56 108 -66 16
-17 15 -18 -27 -29 -57 -14 -98 -31 -97 -39 0 -3 46 -35 101 -71 55 -36 150
-104 210 -153 68 -54 117 -86 127 -83 49 15 142 36 184 42 41 5 48 10 45 26
-3 19 -62 55 -228 140 -131 67 -230 122 -230 129 0 17 44 20 117 9 142 -22
300 -89 416 -177 85 -64 97 -85 59 -103 l-27 -12 30 -25 c17 -14 122 -76 235
-138 113 -62 216 -122 230 -133 25 -20 25 -22 25 -169 0 -136 -2 -155 -28
-228 -15 -45 -52 -118 -82 -164 -52 -81 -54 -85 -41 -115 8 -17 34 -77 59
-133 25 -56 59 -143 77 -195 18 -51 39 -100 46 -108 12 -13 17 -11 38 10 46
48 113 190 136 292 19 83 22 117 18 240 -6 179 -29 279 -94 412 -36 72 -40 86
-25 86 5 0 68 -31 140 -70 72 -38 135 -70 140 -70 21 0 17 33 -15 113 -59 150
-133 275 -241 410 -92 115 -133 157 -258 261 -149 125 -245 188 -399 262 -186
88 -343 137 -536 165 -80 12 -432 24 -440 16z"/>
<path d="M3005 5426 c-104 -106 -181 -243 -229 -406 -20 -72 -31 -298 -18
-370 20 -103 32 -155 43 -185 38 -103 54 -135 67 -135 8 0 56 36 107 80 52 45
154 128 227 186 128 102 152 131 130 157 -25 30 -54 194 -54 302 0 129 18 216
69 324 19 40 32 75 30 77 -15 15 -133 34 -214 34 l-95 0 -63 -64z"/>
<path d="M3620 5328 c-59 -92 -83 -171 -83 -274 0 -81 17 -169 35 -180 6 -4
458 216 477 232 13 12 -151 129 -267 191 -29 15 -62 34 -75 40 -35 20 -70 16
-87 -9z"/>
<path d="M2312 5135 c-91 -139 -188 -360 -227 -515 -9 -36 -22 -87 -30 -115
-8 -27 -20 -114 -26 -193 -23 -257 8 -513 91 -762 51 -154 216 -456 244 -447
8 3 11 67 11 223 -1 179 -4 224 -17 249 -42 80 -93 269 -108 400 -24 212 -8
420 48 626 31 112 47 149 62 149 13 0 12 46 11 -545 -2 -471 2 -566 22 -545 3
3 15 25 27 50 41 82 123 214 192 307 l67 92 -45 96 c-100 214 -134 368 -134
606 0 92 -4 170 -9 173 -4 3 -20 -18 -35 -47 -36 -70 -61 -101 -75 -93 -7 5
-11 61 -11 176 0 93 -4 171 -8 174 -4 3 -27 -24 -50 -59z"/>
<path d="M4820 5049 c-137 -18 -214 -35 -224 -51 -8 -13 4 -31 56 -89 36 -41
100 -121 142 -179 96 -131 112 -150 126 -150 6 0 23 26 38 58 24 51 27 68 27
172 -1 64 -6 134 -13 159 -14 45 -52 92 -74 90 -7 -1 -42 -5 -78 -10z"/>
<path d="M4169 4869 c-186 -76 -449 -219 -449 -243 0 -19 119 -128 185 -170
82 -53 144 -82 247 -117 89 -31 100 -32 248 -32 144 0 160 2 219 27 76 30 102
51 94 74 -7 19 -121 175 -177 242 -99 118 -228 248 -250 252 -14 3 -62 -11
-117 -33z"/>
<path d="M5664 4683 c3 -21 12 -67 21 -103 44 -198 58 -367 44 -540 -14 -160
-52 -349 -95 -462 -12 -34 -11 -68 4 -68 6 0 155 72 395 192 147 73 161 80
167 87 3 3 39 23 80 44 104 54 134 71 138 80 2 4 10 7 18 7 8 0 22 8 32 18 10
10 25 22 33 26 67 33 229 148 229 162 0 14 -41 43 -132 93 -29 15 -96 52 -148
81 -152 84 -189 104 -450 246 -80 43 -183 100 -230 126 -104 59 -115 60 -106
11z"/>
<path d="M3412 4437 c-100 -75 -291 -239 -345 -296 l-59 -61 20 -32 c71 -111
317 -328 477 -419 288 -164 575 -237 884 -226 235 8 339 32 514 117 138 67
173 108 148 172 -5 13 -21 61 -35 108 -34 107 -136 330 -158 344 -13 8 -33 4
-80 -13 -163 -61 -192 -66 -383 -66 -188 0 -225 5 -365 52 -177 59 -358 172
-485 302 -28 30 -58 51 -70 50 -11 0 -39 -15 -63 -32z"/>
<path d="M2798 3853 c-30 -35 -136 -199 -161 -249 -58 -114 -97 -248 -97 -328
0 -57 38 -113 169 -249 147 -152 258 -232 456 -331 161 -80 318 -131 450 -146
82 -10 142 -30 110 -38 -11 -2 -26 -9 -34 -15 -15 -13 -37 -26 -98 -57 -84
-43 -115 -82 -75 -94 122 -38 509 -61 622 -37 30 7 80 16 110 20 30 5 77 16
103 25 26 9 54 16 62 16 9 0 23 4 33 9 9 5 46 19 82 31 36 12 92 35 125 51 33
16 66 29 72 29 6 0 18 6 25 13 7 6 31 21 53 32 51 25 180 112 195 131 7 8 18
14 25 14 8 0 15 4 17 9 2 5 37 35 78 68 100 80 171 152 220 223 13 19 27 37
30 40 6 5 26 36 93 148 27 46 72 136 117 235 21 49 21 77 -1 77 -6 0 -35 -13
-63 -29 -28 -16 -87 -48 -131 -71 -44 -24 -105 -57 -135 -73 -178 -97 -172
-96 -168 -25 3 44 0 53 -16 56 -10 2 -28 -1 -40 -6 -104 -52 -255 -102 -396
-133 -140 -30 -455 -33 -595 -6 -456 89 -812 278 -1113 591 -46 47 -89 86 -96
86 -7 0 -20 -8 -28 -17z m2234 -723 c-1 -14 -17 -54 -35 -90 -29 -56 -46 -75
-128 -138 -52 -40 -114 -85 -139 -99 -25 -15 -47 -30 -50 -33 -21 -22 -269
-125 -328 -136 -20 -4 -46 -11 -57 -17 -18 -9 -238 -37 -295 -37 -21 0 -16 6
30 35 30 19 61 35 68 35 6 0 12 4 12 9 0 5 12 14 28 20 44 19 87 43 90 53 2 4
12 8 22 8 10 0 21 4 25 9 3 6 29 22 58 36 75 38 112 59 115 68 2 4 8 7 14 7 5
0 40 18 76 39 37 21 94 54 127 72 33 18 62 35 65 38 3 4 30 19 60 33 30 15 91
48 135 73 88 49 112 52 107 15z"/>
<path d="M5336 3545 c-29 -44 -16 -73 18 -39 17 16 22 64 7 64 -5 0 -16 -11
-25 -25z"/>
<path d="M2387 3007 c-4 -12 0 -110 24 -647 20 -453 22 -478 40 -496 15 -14
21 -14 60 -1 41 14 75 27 124 48 42 18 111 39 130 39 11 1 49 19 85 40 36 21
92 53 125 70 33 18 62 35 65 39 3 4 12 11 20 14 8 4 42 25 75 47 33 22 69 44
80 50 11 6 34 19 50 30 17 10 57 33 91 50 73 36 101 62 82 77 -7 5 -44 20 -83
32 -251 81 -423 166 -606 302 -116 86 -205 167 -290 265 -39 45 -65 59 -72 41z"/>
<path d="M6975 2610 c3 -5 8 -10 11 -10 2 0 4 5 4 10 0 6 -5 10 -11 10 -5 0
-7 -4 -4 -10z"/>
<path d="M6911 2518 c-17 -23 -31 -46 -31 -50 0 -5 -9 -19 -21 -31 -12 -12
-32 -38 -44 -58 -13 -20 -49 -63 -79 -96 -31 -34 -56 -65 -56 -71 0 -6 -25
-32 -55 -59 -30 -26 -55 -53 -55 -59 0 -9 -52 -54 -63 -54 -2 0 -38 -32 -78
-71 -41 -39 -87 -77 -104 -84 -16 -7 -43 -27 -59 -44 -17 -17 -38 -31 -48 -31
-9 0 -22 -9 -28 -19 -5 -11 -34 -31 -63 -44 -29 -14 -61 -35 -71 -46 -11 -12
-25 -21 -33 -21 -8 0 -36 -20 -62 -45 -35 -33 -56 -45 -79 -45 -17 0 -33 -4
-36 -9 -3 -5 -21 -12 -41 -15 -19 -4 -47 -18 -63 -31 -16 -13 -40 -27 -54 -30
-15 -4 -29 -13 -32 -21 -3 -8 -12 -14 -21 -14 -8 0 -23 -4 -33 -9 -9 -6 -33
-13 -53 -16 -21 -3 -42 -12 -49 -20 -8 -9 -30 -15 -60 -15 -34 0 -52 -5 -65
-20 -10 -11 -26 -20 -35 -20 -10 0 -23 -7 -30 -15 -8 -10 -30 -15 -65 -15 -35
0 -57 -5 -65 -15 -7 -8 -26 -15 -42 -15 -16 0 -41 -9 -55 -20 -14 -11 -31 -20
-38 -20 -6 0 -22 -11 -35 -25 -13 -14 -33 -25 -45 -25 -12 0 -33 -8 -46 -19
-36 -28 -85 -51 -109 -51 -11 0 -20 -5 -20 -10 0 -12 -119 -70 -143 -70 -9 0
-56 -20 -104 -45 -53 -27 -100 -45 -121 -45 -19 0 -46 -6 -60 -14 -15 -8 -53
-20 -85 -27 -32 -7 -60 -16 -63 -21 -3 -4 -18 -8 -33 -8 -16 0 -42 -7 -57 -15
-16 -8 -54 -15 -84 -15 -36 0 -70 -7 -95 -20 -22 -11 -58 -20 -80 -20 -31 0
-47 -6 -65 -25 -19 -21 -29 -23 -65 -18 -26 3 -45 1 -49 -6 -4 -6 -19 -12 -34
-12 -15 -1 22 -7 82 -15 60 -7 114 -18 119 -23 18 -18 338 -14 373 4 20 10 61
15 135 15 75 0 115 4 135 15 16 8 56 15 89 15 33 1 71 7 85 15 14 8 48 14 76
15 28 0 59 6 70 15 10 8 30 15 44 15 14 0 37 6 51 13 14 8 43 17 66 20 22 4
53 14 69 22 16 8 34 15 40 15 7 0 25 7 40 15 16 8 36 15 44 15 8 0 24 7 34 15
11 8 30 15 42 15 12 0 27 7 34 15 7 8 23 15 35 15 12 0 28 7 35 15 7 8 18 15
25 15 6 0 68 29 136 63 169 87 193 100 202 114 4 7 17 13 28 13 11 0 22 7 25
15 4 8 10 15 15 15 5 0 43 24 84 52 42 29 84 58 93 63 10 6 29 20 42 33 14 13
53 44 88 70 34 25 62 49 62 54 0 4 7 8 15 8 8 0 15 7 15 15 0 8 4 15 10 15 9
0 270 256 270 265 0 2 27 31 59 64 33 33 62 69 65 79 4 11 27 40 51 65 25 25
45 52 45 61 0 9 7 19 15 22 8 4 15 12 15 20 0 7 6 17 13 21 14 9 32 37 47 71
5 12 14 22 20 22 5 0 10 6 10 14 0 7 7 19 15 26 8 7 15 21 15 32 0 10 7 21 15
24 9 4 15 19 15 35 0 19 5 29 15 29 10 0 15 10 15 31 0 16 4 28 9 25 10 -7 44
40 48 67 4 26 -2 21 -36 -25z"/>
</g>
</svg>